<svg width="150" height="150" viewBox="0 0 150 150" fill="none" xmlns="http://www.w3.org/2000/svg">
<path d="M51.228 19C54.9267 19 58.09 19.657 60.718 20.971C63.346 22.285 65.317 24.0613 66.631 26.3C67.9937 28.49 68.675 30.899 68.675 33.527C68.675 36.301 68.0423 38.9777 66.777 41.557C65.5117 44.1363 63.419 47.032 60.499 50.244C57.6277 53.4073 53.5397 57.3493 48.235 62.07H69.843L68.602 70.903H35.022V62.727C41.008 56.9357 45.4853 52.434 48.454 49.222C51.4227 45.9613 53.564 43.2117 54.878 40.973C56.2407 38.6857 56.922 36.5443 56.922 34.549C56.922 32.4563 56.338 30.826 55.17 29.658C54.002 28.49 52.323 27.906 50.133 27.906C48.235 27.906 46.5803 28.3197 45.169 29.147C43.7577 29.9257 42.3707 31.2153 41.008 33.016L34 27.687C35.9953 24.913 38.38 22.7717 41.154 21.263C43.9767 19.7543 47.3347 19 51.228 19Z" fill="white"/>
<path d="M96.7515 19C102.737 19 107.263 21.3117 110.329 25.935C113.444 30.5583 115.001 37.0797 115.001 45.499C115.001 53.967 113.444 60.537 110.329 65.209C107.263 69.8323 102.737 72.144 96.7515 72.144C90.7655 72.144 86.2151 69.8323 83.1005 65.209C80.0345 60.537 78.5015 53.967 78.5015 45.499C78.5015 37.0797 80.0345 30.5583 83.1005 25.935C86.2151 21.3117 90.7655 19 96.7515 19ZM96.7515 27.395C94.3182 27.395 92.5175 28.8063 91.3495 31.629C90.2302 34.403 89.6705 39.0263 89.6705 45.499C89.6705 52.1663 90.2302 56.887 91.3495 59.661C92.5175 62.435 94.3182 63.822 96.7515 63.822C99.2335 63.822 101.01 62.435 102.08 59.661C103.2 56.887 103.759 52.1663 103.759 45.499C103.759 38.929 103.175 34.2813 102.007 31.556C100.888 28.782 99.1362 27.395 96.7515 27.395ZM96.6785 40.973C98.0412 40.973 99.1848 41.4353 100.109 42.36C101.034 43.2847 101.496 44.404 101.496 45.718C101.496 47.0807 101.034 48.2243 100.109 49.149C99.1848 50.0737 98.0412 50.536 96.6785 50.536C95.3158 50.536 94.1722 50.0737 93.2475 49.149C92.3715 48.2243 91.9335 47.0807 91.9335 45.718C91.9335 44.404 92.3715 43.2847 93.2475 42.36C94.1722 41.4353 95.3158 40.973 96.6785 40.973Z" fill="white"/>
<path d="M51.228 78C54.9267 78 58.09 78.657 60.718 79.971C63.346 81.285 65.317 83.0613 66.631 85.3C67.9937 87.49 68.675 89.899 68.675 92.527C68.675 95.301 68.0423 97.9777 66.777 100.557C65.5117 103.136 63.419 106.032 60.499 109.244C57.6277 112.407 53.5397 116.349 48.235 121.07H69.843L68.602 129.903H35.022V121.727C41.008 115.936 45.4853 111.434 48.454 108.222C51.4227 104.961 53.564 102.212 54.878 99.973C56.2407 97.6857 56.922 95.5443 56.922 93.549C56.922 91.4563 56.338 89.826 55.17 88.658C54.002 87.49 52.323 86.906 50.133 86.906C48.235 86.906 46.5803 87.3197 45.169 88.147C43.7577 88.9257 42.3707 90.2153 41.008 92.016L34 86.687C35.9953 83.913 38.38 81.7717 41.154 80.263C43.9767 78.7543 47.3347 78 51.228 78Z" fill="white"/>
<path d="M94.7075 78C98.2115 78 101.253 78.584 103.832 79.752C106.46 80.92 108.456 82.5017 109.818 84.497C111.23 86.4437 111.935 88.6093 111.935 90.994C111.935 94.1087 111.011 96.6637 109.161 98.659C107.361 100.654 104.83 102.139 101.569 103.112C109.551 104.183 113.541 108.368 113.541 115.668C113.541 118.539 112.738 121.167 111.132 123.552C109.575 125.888 107.312 127.737 104.343 129.1C101.375 130.463 97.9195 131.144 93.9775 131.144C90.2788 131.144 86.9208 130.487 83.9035 129.173C80.8862 127.859 78.3068 125.985 76.1655 123.552L82.6625 117.493C85.4365 120.705 88.9405 122.311 93.1745 122.311C95.7538 122.311 97.8222 121.654 99.3795 120.34C100.937 119.026 101.715 117.201 101.715 114.865C101.715 109.804 98.8685 107.273 93.1745 107.273H88.5755L89.8895 99.389H93.1015C95.4375 99.389 97.2868 98.8293 98.6495 97.71C100.061 96.542 100.766 94.8873 100.766 92.746C100.766 90.848 100.085 89.3637 98.7225 88.293C97.3598 87.1737 95.5835 86.614 93.3935 86.614C89.7435 86.614 86.3855 88.074 83.3195 90.994L77.4065 84.862C82.1271 80.2873 87.8942 78 94.7075 78Z" fill="white"/>
</svg>
