<svg width="99" height="71" viewBox="0 0 99 71" fill="none" xmlns="http://www.w3.org/2000/svg">
<path fill-rule="evenodd" clip-rule="evenodd" d="M56.0537 11.046C57.4587 9.65132 59.7367 9.65132 61.1417 11.046L82.0918 31.8433C83.8482 33.5868 83.8482 36.4133 82.0918 38.1568L61.1417 58.954C59.7367 60.3487 57.4587 60.3487 56.0537 58.954C54.6488 57.5594 54.6488 55.2979 56.0537 53.9033L75.0961 35L56.0537 16.0968C54.6488 14.7021 54.6488 12.4408 56.0537 11.046Z" fill="white" fill-opacity="0.5"/>
<path d="M38.8437 70.6406L16.8594 66.6719C16.776 66.651 16.7344 66.599 16.7344 66.5156L16.7344 61.875C16.7344 61.7917 16.776 61.7396 16.8594 61.7187L38.8437 57.9062C38.9479 57.8958 39 57.9375 39 58.0312L39 61.5781C39 61.6823 38.9479 61.7396 38.8437 61.75L36.5 62.0937L36.5 66.4531L38.8437 66.7969C38.9479 66.8073 39 66.8594 39 66.9531L39 70.5156C39 70.599 38.9479 70.6406 38.8437 70.6406ZM24.0937 64.375L33.0781 65.8125L33.0781 62.7344L24.0937 64.0469L22.9062 64.2344L24.0937 64.375ZM39 50.0469L39 55.7812C39 55.8646 38.9479 55.9062 38.8437 55.9062L16.8594 55.8437C16.776 55.8437 16.7344 55.8021 16.7344 55.7187L16.7344 49.5625C16.7344 48.3646 17.026 47.276 17.6094 46.2969C18.1927 45.3385 18.9687 44.5833 19.9375 44.0312C20.8958 43.4792 21.9375 43.2031 23.0625 43.2031C23.9792 43.2031 24.8333 43.4115 25.625 43.8281C26.4167 44.2448 27.0573 44.7396 27.5469 45.3125C28.1615 44.6979 28.875 44.2187 29.6875 43.875C30.5 43.5312 31.3542 43.3594 32.25 43.3594C33.4896 43.3594 34.6198 43.6562 35.6406 44.25C36.6615 44.8542 37.4792 45.6615 38.0937 46.6719C38.6979 47.6823 39 48.8073 39 50.0469ZM20.5312 49.5625L20.5312 52L25.5625 52L25.5625 49.5625C25.5625 48.8229 25.3021 48.224 24.7812 47.7656C24.25 47.3073 23.6771 47.0781 23.0625 47.0781C22.3854 47.0781 21.7969 47.3229 21.2969 47.8125C20.7865 48.3021 20.5312 48.8854 20.5312 49.5625ZM29.4375 50.0469L29.4375 52L35.0937 52.0312L35.0937 50.0469C35.0937 49.276 34.8125 48.6146 34.25 48.0625C33.6875 47.5104 33.0208 47.2344 32.25 47.2344C31.4792 47.2344 30.8177 47.5104 30.2656 48.0625C29.7135 48.6146 29.4375 49.276 29.4375 50.0469ZM39.3125 35.1406C39.3125 36.276 39.0208 37.3229 38.4375 38.2812C37.8542 39.2292 37.0781 39.9948 36.1094 40.5781C35.1302 41.151 34.0573 41.4375 32.8906 41.4375L22.75 41.4062C21.5625 41.4062 20.4948 41.1198 19.5469 40.5469C18.5885 39.9844 17.8229 39.224 17.25 38.2656C16.6667 37.3073 16.375 36.2656 16.375 35.1406C16.375 33.974 16.6615 32.9271 17.2344 32C17.8073 31.0625 18.5781 30.3125 19.5469 29.75C20.5052 29.1771 21.5729 28.8906 22.75 28.8906L32.8906 28.8594C34.0573 28.8594 35.125 29.1406 36.0937 29.7031C37.0729 30.276 37.8542 31.0365 38.4375 31.9844C39.0208 32.9323 39.3125 33.9844 39.3125 35.1406ZM35.4531 35.1406C35.4531 34.4948 35.1927 33.9323 34.6719 33.4531C34.1406 32.974 33.5469 32.7344 32.8906 32.7344L22.75 32.7656C22.0417 32.7656 21.4427 32.9896 20.9531 33.4375C20.4635 33.8854 20.2187 34.4531 20.2187 35.1406C20.2187 35.7969 20.4583 36.3594 20.9375 36.8281C21.4167 37.2969 22.0208 37.5312 22.75 37.5312L32.8906 37.5312C33.5885 37.5312 34.1927 37.2969 34.7031 36.8281C35.2031 36.3594 35.4531 35.7969 35.4531 35.1406ZM39.3125 20.5469C39.3125 21.6719 39.0208 22.7135 38.4375 23.6719C37.8542 24.6302 37.0729 25.3958 36.0937 25.9687C35.1042 26.5312 34.026 26.8125 32.8594 26.8125L16.8594 26.75C16.776 26.75 16.7344 26.7083 16.7344 26.625L16.7344 23.0312C16.7344 22.9479 16.776 22.9062 16.8594 22.9062L32.8594 22.9062C33.5781 22.9062 34.1927 22.6771 34.7031 22.2187C35.2031 21.7604 35.4531 21.2031 35.4531 20.5469C35.4531 19.8594 35.2031 19.2865 34.7031 18.8281C34.1927 18.3698 33.5781 18.1406 32.8594 18.1406L16.8594 18.1406C16.776 18.1406 16.7344 18.099 16.7344 18.0156L16.7344 14.4219C16.7344 14.3385 16.776 14.2969 16.8594 14.2969L32.8594 14.2344C34.0365 14.2344 35.1198 14.5156 36.1094 15.0781C37.0885 15.651 37.8698 16.4115 38.4531 17.3594C39.026 18.3073 39.3125 19.3698 39.3125 20.5469ZM39 4.89062L39 8.5C39 8.59375 38.9479 8.64062 38.8437 8.64062L20.5937 8.64062L20.5937 12.7969C20.5937 12.901 20.5417 12.9531 20.4375 12.9531L16.8594 12.9219C16.776 12.9219 16.7344 12.8802 16.7344 12.7969L16.7344 0.640624C16.7344 0.526041 16.776 0.468749 16.8594 0.468749L20.4375 0.468749C20.5417 0.468749 20.5937 0.510416 20.5937 0.593749L20.5937 4.79687L38.8437 4.76562C38.9479 4.76562 39 4.80729 39 4.89062Z" fill="white" fill-opacity="0.5"/>
</svg>
