<svg width="141" height="48" viewBox="0 0 141 48" fill="none" xmlns="http://www.w3.org/2000/svg">
<path d="M30.1278 42.6188C34.1865 42.6188 38.0112 40.6272 46.8311 35.5154L53.2311 31.798L52.6847 30.9351L46.2064 34.5199C38.9478 38.5028 35.5134 40.2952 33.0159 40.4944C33.4061 37.3078 33.9525 32.9267 36.9963 28.5452C41.2894 23.6329 43.4746 21.1767 44.5673 18.2556C43.0065 16.6624 37.855 16.9281 35.8257 17.8573C35.2793 18.5876 34.8112 19.3177 34.2648 19.9817C33.7184 17.8573 31.6108 16.9281 29.5815 16.9281C25.9913 16.9281 20.2152 19.5168 15.6884 23.7654C13.4249 25.2261 10.4589 27.0182 6.40024 29.3418L0 32.993L0.624419 33.8559L7.1027 30.1385C9.5223 28.7444 11.5516 27.5494 13.1907 26.4874C10.537 29.7402 8.74176 33.5904 8.74176 37.9053C8.74176 40.2952 10.2248 41.6893 12.176 41.6893C15.4542 41.6893 20.3713 39.1002 27.084 31.5989C25.601 34.5199 24.9764 36.7104 24.9764 38.171C24.9764 41.7556 26.6938 42.6188 30.1278 42.6188ZM17.7177 37.3744C16.3128 33.6567 19.9032 20.2472 28.801 17.9902C31.5329 18.1893 32.9376 19.5834 32.9376 21.243C32.9376 21.5084 32.8597 21.9067 32.7036 22.305C32.1572 23.0354 31.6891 23.832 31.2206 24.4958C27.0058 29.7402 20.9177 36.7104 17.7177 37.3744Z" fill="white"/>
<path d="M61.6552 43.2825C65.636 43.2825 70.6313 41.4238 80.778 35.5154L87.1783 31.798L86.6319 30.9351L80.0754 34.5862C74.2997 37.839 69.5385 40.0297 66.4947 40.2289C65.87 37.839 66.0262 34.055 67.1968 30.0722C75.7827 27.8149 84.1341 23.3008 84.1341 18.3222C84.1341 15.8657 82.3388 14.5382 78.8265 14.5382C72.2704 14.5382 63.8407 20.3135 59.0016 27.2174C57.9088 27.8814 56.6599 28.6115 55.4113 29.3418L49.011 32.993L49.6353 33.8559L56.1135 30.1385C56.6599 29.8064 57.2063 29.4747 57.7526 29.209C56.0356 32.13 55.0208 35.1837 55.0208 38.0382C55.0208 41.0255 57.2845 43.2825 61.6552 43.2825ZM79.9975 15.9986C79.0609 21.243 73.9095 26.089 67.6653 28.6781C69.5385 23.3671 73.441 18.1893 79.9975 15.9986Z" fill="white"/>
<path d="M113.37 45.2741C116.336 45.2741 119.067 44.4109 134.288 35.5154L141 31.5988L140.141 30.9351L133.741 34.5199C124.141 39.8968 121.955 40.8263 119.38 41.3572C115.555 39.764 111.106 35.5154 108.999 31.5325C117.897 27.7485 122.268 23.1016 122.268 21.1767C122.268 19.7826 121.253 19.3842 120.004 19.3842C116.102 19.3842 111.028 22.4379 105.018 28.014C106.657 24.4957 108.374 21.3092 110.17 18.4547C119.38 12.8121 124.531 9.75841 124.531 5.90813C124.531 3.58483 118.443 0 113.994 0C109.702 2.65533 103.535 12.4803 97.9936 23.9646C95.4178 25.6907 92.4519 27.5494 89.3298 29.3418L82.9298 32.9929L83.5541 33.8558L90.0323 30.1384C92.374 28.8106 94.8715 27.2174 97.2131 25.6244C94.2472 31.9308 91.5153 38.5693 89.3298 44.8092C91.7494 46.137 94.7153 46.8673 98.0718 47.1328C99.3204 42.685 100.725 38.5027 102.208 34.6525C102.989 39.6314 106.423 45.2741 113.37 45.2741ZM121.409 4.38146C121.955 4.71319 122.58 5.31066 122.58 6.10729C122.58 9.22752 118.287 12.082 111.496 16.3306C114.697 11.418 118.053 7.4351 121.409 4.38146ZM119.77 21.0438C119.77 22.7696 114.619 29.2755 103.145 32.3954C103.457 31.7317 103.691 31.0676 104.004 30.4039C110.326 24.3629 115.789 21.0438 119.77 21.0438Z" fill="white"/>
</svg>
