<svg width="562" height="287" viewBox="0 0 562 287" fill="none" xmlns="http://www.w3.org/2000/svg">
<path d="M315.79 223L271.356 223.244C261.591 223.244 252.965 220.803 245.478 215.92C238.072 211.118 232.253 205.056 228.021 197.731C223.871 190.407 221.796 183.083 221.796 175.759V159.279C221.796 153.583 223.139 148.09 225.824 142.8C228.51 137.429 232.009 132.668 236.322 128.518C232.823 124.693 230.056 120.013 228.021 114.479C226.068 108.864 225.092 102.639 225.092 95.8027C225.092 87.1764 227.126 79.2826 231.195 72.1211C235.264 65.041 240.757 59.4258 247.675 55.2754C254.592 51.125 262.283 49.0498 270.746 49.0498H304.56C305.699 49.0498 306.269 49.6195 306.269 50.7588V77.248C306.269 78.2246 305.78 78.7129 304.804 78.7129H270.746C266.596 78.7129 262.974 80.3812 259.882 83.7178C256.789 87.0544 255.243 91.0827 255.243 95.8027C255.243 101.418 256.545 105.812 259.149 108.986C261.754 112.16 265.619 113.747 270.746 113.747H338.739C339.634 113.747 340.082 114.154 340.082 114.968V142.8C340.082 143.451 339.757 143.776 339.105 143.776H317.011L316.767 222.023C316.767 222.674 316.441 223 315.79 223ZM271.356 193.215L287.592 192.971L287.836 143.776H270.502C267.003 143.776 263.829 144.631 260.98 146.34C254.714 150.165 251.581 154.478 251.581 159.279V175.759C251.581 178.2 252.395 180.804 254.022 183.571C255.65 186.338 257.929 188.658 260.858 190.529C263.788 192.32 267.287 193.215 271.356 193.215Z" fill="white" fill-opacity="0.2"/>
<path d="M22.6504 175.977C19.0371 175.977 15.7331 175.065 12.7383 173.242C9.77604 171.419 7.41602 168.978 5.6582 165.918C3.93294 162.826 3.07031 159.391 3.07031 155.615L3.16797 124.414C3.16797 120.703 4.01432 117.35 5.70703 114.355C7.39974 111.328 9.72721 108.903 12.6895 107.08C15.6842 105.225 19.0046 104.297 22.6504 104.297C26.3613 104.297 29.6654 105.192 32.5625 106.982C35.4922 108.773 37.8197 111.198 39.5449 114.258C41.3027 117.285 42.1816 120.671 42.1816 124.414V129.004C42.1816 129.264 42.0514 129.395 41.791 129.395H30.5605C30.3001 129.395 30.1699 129.264 30.1699 129.004V124.414C30.1699 122.201 29.4538 120.296 28.0215 118.701C26.5892 117.106 24.7988 116.309 22.6504 116.309C20.2741 116.309 18.4512 117.122 17.1816 118.75C15.9121 120.378 15.2773 122.266 15.2773 124.414V155.615C15.2773 158.057 15.9935 160.059 17.4258 161.621C18.8581 163.151 20.5996 163.916 22.6504 163.916C24.7988 163.916 26.5892 163.07 28.0215 161.377C29.4538 159.652 30.1699 157.731 30.1699 155.615V150.977C30.1699 150.716 30.3001 150.586 30.5605 150.586H41.8887C42.1491 150.586 42.2793 150.716 42.2793 150.977V155.615C42.2793 159.359 41.4004 162.777 39.6426 165.869C37.8522 168.929 35.4922 171.387 32.5625 173.242C29.6328 175.065 26.3288 175.977 22.6504 175.977ZM68.0605 175.977C64.5124 175.977 61.2409 175.065 58.2461 173.242C55.2839 171.419 52.8913 168.994 51.0684 165.967C49.278 162.907 48.3828 159.554 48.3828 155.908L48.4805 124.219C48.4805 120.508 49.3757 117.171 51.166 114.209C52.9238 111.214 55.3001 108.822 58.2949 107.031C61.2897 105.208 64.5449 104.297 68.0605 104.297C71.7064 104.297 74.9779 105.192 77.875 106.982C80.8047 108.773 83.1484 111.182 84.9062 114.209C86.6966 117.204 87.5918 120.54 87.5918 124.219L87.6895 155.908C87.6895 159.554 86.8105 162.891 85.0527 165.918C83.2624 168.978 80.8861 171.419 77.9238 173.242C74.9616 175.065 71.6738 175.977 68.0605 175.977ZM68.0605 163.916C70.0788 163.916 71.8366 163.102 73.334 161.475C74.8314 159.814 75.5801 157.959 75.5801 155.908L75.4824 124.219C75.4824 122.005 74.7826 120.133 73.3828 118.604C71.9831 117.074 70.209 116.309 68.0605 116.309C66.0098 116.309 64.252 117.057 62.7871 118.555C61.3223 120.052 60.5898 121.94 60.5898 124.219V155.908C60.5898 158.089 61.3223 159.977 62.7871 161.572C64.252 163.135 66.0098 163.916 68.0605 163.916ZM127.973 175H95.6484C95.388 175 95.2578 174.837 95.2578 174.512L95.3555 105.908C95.3555 105.583 95.5182 105.42 95.8438 105.42H106.977C107.302 105.42 107.465 105.583 107.465 105.908L107.367 162.695H127.973C128.298 162.695 128.461 162.858 128.461 163.184V174.512C128.461 174.837 128.298 175 127.973 175ZM167.719 175H135.395C135.134 175 135.004 174.837 135.004 174.512L135.102 105.908C135.102 105.583 135.264 105.42 135.59 105.42H146.723C147.048 105.42 147.211 105.583 147.211 105.908L147.113 162.695H167.719C168.044 162.695 168.207 162.858 168.207 163.184V174.512C168.207 174.837 168.044 175 167.719 175ZM171.381 174.512L183.783 105.811C183.848 105.55 184.011 105.42 184.271 105.42H198.773C199.034 105.42 199.197 105.55 199.262 105.811L211.176 174.512C211.208 174.837 211.078 175 210.785 175H199.701C199.376 175 199.197 174.837 199.164 174.512L198.09 167.188H184.467L183.393 174.512C183.36 174.837 183.197 175 182.904 175H171.771C171.511 175 171.381 174.837 171.381 174.512ZM190.961 128.418L186.469 156.494H196.088L191.986 128.418L191.4 124.707L190.961 128.418ZM235.736 175H217.816C217.556 175 217.426 174.837 217.426 174.512L217.621 105.811C217.621 105.55 217.751 105.42 218.012 105.42H237.25C240.993 105.42 244.395 106.331 247.455 108.154C250.45 109.977 252.81 112.402 254.535 115.43C256.26 118.424 257.123 121.68 257.123 125.195C257.123 128.06 256.472 130.729 255.17 133.203C253.868 135.677 252.322 137.679 250.531 139.209C252.452 141.13 253.949 143.359 255.023 145.898C256.098 148.438 256.635 151.107 256.635 153.906C256.635 157.78 255.707 161.312 253.852 164.502C251.964 167.692 249.441 170.247 246.283 172.168C243.126 174.056 239.61 175 235.736 175ZM237.25 117.285H229.633V133.008H237.25C239.561 133.008 241.433 132.194 242.865 130.566C244.298 128.906 245.014 127.116 245.014 125.195C245.014 123.079 244.249 121.24 242.719 119.678C241.189 118.083 239.366 117.285 237.25 117.285ZM235.736 145.117H229.633L229.535 162.793H235.736C238.145 162.793 240.212 161.914 241.938 160.156C243.663 158.398 244.525 156.315 244.525 153.906C244.525 151.497 243.663 149.43 241.938 147.705C240.212 145.98 238.145 145.117 235.736 145.117ZM308.197 175.977C304.584 175.977 301.28 175.065 298.285 173.242C295.323 171.419 292.963 168.978 291.205 165.918C289.48 162.826 288.617 159.391 288.617 155.615L288.715 124.414C288.715 120.703 289.561 117.35 291.254 114.355C292.947 111.328 295.274 108.903 298.236 107.08C301.231 105.225 304.551 104.297 308.197 104.297C311.908 104.297 315.212 105.192 318.109 106.982C321.039 108.773 323.367 111.198 325.092 114.258C326.85 117.285 327.729 120.671 327.729 124.414V129.004C327.729 129.264 327.598 129.395 327.338 129.395H316.107C315.847 129.395 315.717 129.264 315.717 129.004V124.414C315.717 122.201 315.001 120.296 313.568 118.701C312.136 117.106 310.346 116.309 308.197 116.309C305.821 116.309 303.998 117.122 302.729 118.75C301.459 120.378 300.824 122.266 300.824 124.414V155.615C300.824 158.057 301.54 160.059 302.973 161.621C304.405 163.151 306.146 163.916 308.197 163.916C310.346 163.916 312.136 163.07 313.568 161.377C315.001 159.652 315.717 157.731 315.717 155.615V150.977C315.717 150.716 315.847 150.586 316.107 150.586H327.436C327.696 150.586 327.826 150.716 327.826 150.977V155.615C327.826 159.359 326.947 162.777 325.189 165.869C323.399 168.929 321.039 171.387 318.109 173.242C315.18 175.065 311.876 175.977 308.197 175.977ZM353.607 175.977C350.059 175.977 346.788 175.065 343.793 173.242C340.831 171.419 338.438 168.994 336.615 165.967C334.825 162.907 333.93 159.554 333.93 155.908L334.027 124.219C334.027 120.508 334.923 117.171 336.713 114.209C338.471 111.214 340.847 108.822 343.842 107.031C346.837 105.208 350.092 104.297 353.607 104.297C357.253 104.297 360.525 105.192 363.422 106.982C366.352 108.773 368.695 111.182 370.453 114.209C372.243 117.204 373.139 120.54 373.139 124.219L373.236 155.908C373.236 159.554 372.357 162.891 370.6 165.918C368.809 168.978 366.433 171.419 363.471 173.242C360.508 175.065 357.221 175.977 353.607 175.977ZM353.607 163.916C355.626 163.916 357.383 163.102 358.881 161.475C360.378 159.814 361.127 157.959 361.127 155.908L361.029 124.219C361.029 122.005 360.329 120.133 358.93 118.604C357.53 117.074 355.756 116.309 353.607 116.309C351.557 116.309 349.799 117.057 348.334 118.555C346.869 120.052 346.137 121.94 346.137 124.219V155.908C346.137 158.089 346.869 159.977 348.334 161.572C349.799 163.135 351.557 163.916 353.607 163.916ZM392.523 175H381.195C380.935 175 380.805 174.837 380.805 174.512L381 105.811C381 105.55 381.13 105.42 381.391 105.42H401.605C405.219 105.42 408.539 106.299 411.566 108.057C414.594 109.814 417.003 112.174 418.793 115.137C420.616 118.099 421.527 121.452 421.527 125.195C421.527 127.637 421.153 129.85 420.404 131.836C419.656 133.822 418.777 135.498 417.768 136.865C416.791 138.232 415.896 139.242 415.082 139.893C418.695 143.896 420.502 148.6 420.502 154.004L420.6 174.512C420.6 174.837 420.437 175 420.111 175H408.783C408.523 175 408.393 174.902 408.393 174.707V154.004C408.393 151.595 407.546 149.512 405.854 147.754C404.161 145.996 402.077 145.117 399.604 145.117H393.012L392.914 174.512C392.914 174.837 392.784 175 392.523 175ZM401.605 117.383H393.012V133.105H401.605C403.656 133.105 405.479 132.34 407.074 130.811C408.702 129.281 409.516 127.409 409.516 125.195C409.516 123.079 408.734 121.257 407.172 119.727C405.609 118.164 403.754 117.383 401.605 117.383ZM439.936 175H429.926C429.405 175 429.145 174.772 429.145 174.316L429.047 106.201C429.047 105.68 429.307 105.42 429.828 105.42H438.861L455.756 144.824L455.268 106.201C455.268 105.68 455.561 105.42 456.146 105.42H466.059C466.449 105.42 466.645 105.68 466.645 106.201L466.742 174.414C466.742 174.805 466.579 175 466.254 175H457.465L440.131 138.184L440.863 174.219C440.863 174.74 440.554 175 439.936 175ZM508.148 175H475.824C475.564 175 475.434 174.837 475.434 174.512L475.531 105.811C475.531 105.55 475.661 105.42 475.922 105.42H508.051C508.311 105.42 508.441 105.583 508.441 105.908V117.09C508.441 117.35 508.311 117.48 508.051 117.48H487.543V133.105H508.051C508.311 133.105 508.441 133.236 508.441 133.496L508.539 144.824C508.539 145.085 508.409 145.215 508.148 145.215H487.543V162.695H508.148C508.409 162.695 508.539 162.858 508.539 163.184V174.609C508.539 174.87 508.409 175 508.148 175ZM529.145 175H517.816C517.556 175 517.426 174.837 517.426 174.512L517.621 105.811C517.621 105.55 517.751 105.42 518.012 105.42H538.227C541.84 105.42 545.16 106.299 548.188 108.057C551.215 109.814 553.624 112.174 555.414 115.137C557.237 118.099 558.148 121.452 558.148 125.195C558.148 127.637 557.774 129.85 557.025 131.836C556.277 133.822 555.398 135.498 554.389 136.865C553.412 138.232 552.517 139.242 551.703 139.893C555.316 143.896 557.123 148.6 557.123 154.004L557.221 174.512C557.221 174.837 557.058 175 556.732 175H545.404C545.144 175 545.014 174.902 545.014 174.707V154.004C545.014 151.595 544.167 149.512 542.475 147.754C540.782 145.996 538.699 145.117 536.225 145.117H529.633L529.535 174.512C529.535 174.837 529.405 175 529.145 175ZM538.227 117.383H529.633V133.105H538.227C540.277 133.105 542.1 132.34 543.695 130.811C545.323 129.281 546.137 127.409 546.137 125.195C546.137 123.079 545.355 121.257 543.793 119.727C542.23 118.164 540.375 117.383 538.227 117.383Z" fill="white"/>
</svg>
