<svg width="99" height="114" viewBox="0 0 99 114" fill="none" xmlns="http://www.w3.org/2000/svg">
<path fill-rule="evenodd" clip-rule="evenodd" d="M42.9463 81.954C41.5413 83.3487 39.2633 83.3487 37.8583 81.954L16.9082 61.1567C15.1518 59.4132 15.1518 56.5867 16.9082 54.8432L37.8583 34.046C39.2633 32.6513 41.5413 32.6513 42.9463 34.046C44.3512 35.4406 44.3512 37.7021 42.9463 39.0967L23.9039 58L42.9463 76.9032C44.3512 78.2979 44.3512 80.5592 42.9463 81.954Z" fill="white" fill-opacity="0.5"/>
<path d="M60 5.375L60 1.78125C60 1.67708 60.0521 1.625 60.1562 1.625L82.1406 1.6875C82.224 1.6875 82.2656 1.72917 82.2656 1.8125L82.2656 7.96875C82.2656 9.92708 81.6667 11.474 80.4687 12.6094C79.2812 13.7552 77.6615 14.3281 75.6094 14.3281C74.1094 14.3281 72.8021 14.0312 71.6875 13.4375C70.5833 12.8333 69.7292 12.0521 69.125 11.0937C68.5208 10.1354 68.2187 9.09375 68.2187 7.96875L68.2187 5.53125L60.1562 5.53125C60.0521 5.53125 60 5.47916 60 5.375ZM78.4687 7.96875L78.4375 5.53125L72.0937 5.53125L72.0937 7.96875C72.0937 8.64583 72.4167 9.23437 73.0625 9.73437C73.7187 10.2344 74.5677 10.4844 75.6094 10.4844C76.4427 10.4844 77.125 10.2604 77.6562 9.8125C78.1979 9.36458 78.4687 8.75 78.4687 7.96875ZM60 20L60 16.375C60 16.2917 60.0521 16.25 60.1562 16.25L82.1406 16.3125C82.224 16.3125 82.2656 16.3542 82.2656 16.4375L82.2656 22.9062C82.2656 24.0625 81.9844 25.125 81.4219 26.0937C80.8594 27.0625 80.1042 27.8333 79.1562 28.4062C78.2083 28.9896 77.1354 29.2812 75.9375 29.2812C75.1562 29.2812 74.4479 29.1615 73.8125 28.9219C73.1771 28.6823 72.6406 28.401 72.2031 28.0781C71.7656 27.7656 71.4427 27.4792 71.2344 27.2187C69.9531 28.375 68.4479 28.9531 66.7187 28.9531L60.1562 28.9844C60.0521 28.9844 60 28.9323 60 28.8281L60 25.2031C60 25.1198 60.0312 25.0781 60.0937 25.0781L66.7187 25.0781C67.4896 25.0781 68.1562 24.8073 68.7187 24.2656C69.2812 23.724 69.5625 23.0573 69.5625 22.2656L69.5625 20.1562L60.1562 20.125C60.0521 20.125 60 20.0833 60 20ZM78.4375 22.9062L78.4375 20.1562L73.4062 20.1562L73.4062 22.9062C73.4062 23.5625 73.651 24.1458 74.1406 24.6562C74.6302 25.1771 75.2292 25.4375 75.9375 25.4375C76.6146 25.4375 77.1979 25.1875 77.6875 24.6875C78.1875 24.1875 78.4375 23.5937 78.4375 22.9062ZM59.6875 37.6094C59.6875 36.474 59.9792 35.4271 60.5625 34.4687C61.1458 33.5208 61.9219 32.7552 62.8906 32.1719C63.8698 31.599 64.9427 31.3125 66.1094 31.3125L76.25 31.3437C77.4375 31.3437 78.5052 31.6302 79.4531 32.2031C80.4115 32.7656 81.1771 33.526 81.75 34.4844C82.3333 35.4427 82.625 36.4844 82.625 37.6094C82.625 38.776 82.3385 39.8229 81.7656 40.75C81.1927 41.6875 80.4219 42.4375 79.4531 43C78.4948 43.5729 77.4271 43.8594 76.25 43.8594L66.1094 43.8906C64.9427 43.8906 63.875 43.6094 62.9062 43.0469C61.9271 42.474 61.1458 41.7135 60.5625 40.7656C59.9792 39.8177 59.6875 38.7656 59.6875 37.6094ZM63.5469 37.6094C63.5469 38.2552 63.8073 38.8177 64.3281 39.2969C64.8594 39.776 65.4531 40.0156 66.1094 40.0156L76.25 39.9844C76.9583 39.9844 77.5573 39.7604 78.0469 39.3125C78.5365 38.8646 78.7812 38.2969 78.7812 37.6094C78.7812 36.9531 78.5417 36.3906 78.0625 35.9219C77.5833 35.4531 76.9792 35.2187 76.25 35.2187L66.1094 35.2187C65.4115 35.2187 64.8073 35.4531 64.2969 35.9219C63.7969 36.3906 63.5469 36.9531 63.5469 37.6094ZM59.6875 51.5625C59.6875 50.3854 59.9687 49.3177 60.5312 48.3594C61.0937 47.4115 61.8698 46.6615 62.8594 46.1094C63.8594 45.5677 64.974 45.2969 66.2031 45.2969L67.6875 45.2969C67.7708 45.2969 67.8125 45.3385 67.8125 45.4219L67.8125 49.0469C67.8125 49.1302 67.7552 49.1719 67.6406 49.1719L66.2031 49.1719C65.4219 49.1719 64.7812 49.3958 64.2812 49.8437C63.7917 50.2917 63.5469 50.8646 63.5469 51.5625C63.5469 52.2083 63.8125 52.7656 64.3437 53.2344C64.8854 53.7031 65.5052 53.9375 66.2031 53.9375L82.1094 53.9375C82.1927 53.9375 82.2344 53.9792 82.2344 54.0625L82.2344 57.6562C82.2344 57.7396 82.1823 57.7812 82.0781 57.7812L66.2031 57.8125C65.0365 57.8125 63.9583 57.5312 62.9687 56.9687C61.9687 56.3958 61.1719 55.6406 60.5781 54.7031C59.9844 53.7656 59.6875 52.7187 59.6875 51.5625ZM60 70.6875L60 60.3437C60 60.2604 60.0521 60.2187 60.1562 60.2187L82.1406 60.25C82.224 60.25 82.2656 60.2917 82.2656 60.375L82.2656 70.6562C82.2656 70.7396 82.2135 70.7812 82.1094 70.7812L78.5312 70.7812C78.4479 70.7812 78.4062 70.7396 78.4062 70.6562L78.4062 64.0937L73.4062 64.0937L73.4062 70.6562C73.4062 70.7396 73.3646 70.7812 73.2812 70.7812L69.6562 70.8125C69.5729 70.8125 69.5312 70.7708 69.5312 70.6875L69.5312 64.0937L63.9375 64.0937L63.9375 70.6875C63.9375 70.7708 63.8854 70.8125 63.7812 70.8125L60.125 70.8125C60.0417 70.8125 60 70.7708 60 70.6875ZM59.6875 79.5469C59.6875 78.3906 59.9792 77.3333 60.5625 76.375C61.1458 75.4271 61.9271 74.6719 62.9062 74.1094C63.8958 73.5573 64.9948 73.2812 66.2031 73.2812L76.1875 73.3125C77.375 73.3125 78.4479 73.5833 79.4062 74.125C80.375 74.6667 81.151 75.4115 81.7344 76.3594C82.3281 77.3177 82.625 78.3802 82.625 79.5469C82.625 80.7344 82.3385 81.7917 81.7656 82.7187C81.1927 83.6562 80.4167 84.401 79.4375 84.9531C78.4687 85.5156 77.3854 85.7969 76.1875 85.7969L74.7187 85.7969C74.6354 85.7969 74.5937 85.7552 74.5937 85.6719L74.5937 82.0781C74.5937 81.9948 74.6354 81.9531 74.7187 81.9531L76.1875 81.9531C76.8958 81.9531 77.5052 81.724 78.0156 81.2656C78.526 80.8073 78.7812 80.2344 78.7812 79.5469C78.7812 78.7865 78.5208 78.2031 78 77.7969C77.4792 77.3906 76.875 77.1875 76.1875 77.1875L66.2031 77.1875C65.4219 77.1875 64.7812 77.4167 64.2812 77.875C63.7917 78.3333 63.5469 78.8906 63.5469 79.5469C63.5469 80.2344 63.8177 80.8073 64.3594 81.2656C64.9115 81.724 65.526 81.9531 66.2031 81.9531L67.6875 81.9531C67.7708 81.9531 67.8125 81.9948 67.8125 82.0781L67.8125 85.7031C67.8125 85.7865 67.7708 85.8281 67.6875 85.8281L66.2031 85.8281C65.0052 85.8281 63.9115 85.5469 62.9219 84.9844C61.9427 84.4115 61.1562 83.6562 60.5625 82.7187C59.9792 81.7812 59.6875 80.724 59.6875 79.5469ZM60 94.9844L60 91.375C60 91.2812 60.0521 91.2344 60.1562 91.2344L78.4062 91.2344L78.4062 87.0781C78.4062 86.974 78.4583 86.9219 78.5625 86.9219L82.1406 86.9531C82.224 86.9531 82.2656 86.9948 82.2656 87.0781L82.2656 99.2344C82.2656 99.349 82.224 99.4062 82.1406 99.4062L78.5625 99.4062C78.4583 99.4062 78.4062 99.3646 78.4062 99.2812L78.4062 95.0781L60.1562 95.1094C60.0521 95.1094 60 95.0677 60 94.9844ZM59.6875 106.406C59.6875 105.271 59.9792 104.224 60.5625 103.266C61.1458 102.318 61.9219 101.557 62.8906 100.984C63.8698 100.422 64.9427 100.141 66.1094 100.141L67.5781 100.141C67.6927 100.141 67.75 100.193 67.75 100.297L67.75 103.891C67.75 103.974 67.6927 104.016 67.5781 104.016L66.1094 104.016C65.4115 104.016 64.8073 104.25 64.2969 104.719C63.7969 105.187 63.5469 105.75 63.5469 106.406C63.5469 107.073 63.8021 107.641 64.3125 108.109C64.8333 108.578 65.4323 108.812 66.1094 108.812C66.8906 108.812 67.5729 108.302 68.1562 107.281C68.2604 107.115 68.3854 106.896 68.5312 106.625C68.6875 106.365 68.8646 106.052 69.0625 105.687C69.2604 105.323 69.4531 104.969 69.6406 104.625C69.8385 104.281 70.026 103.948 70.2031 103.625C70.8906 102.458 71.75 101.589 72.7812 101.016C73.8229 100.453 74.9896 100.172 76.2812 100.172C77.4687 100.172 78.5417 100.464 79.5 101.047C80.4479 101.63 81.1979 102.391 81.75 103.328C82.3125 104.276 82.5937 105.302 82.5937 106.406C82.5937 107.542 82.3125 108.583 81.75 109.531C81.1771 110.479 80.4167 111.234 79.4687 111.797C78.5208 112.37 77.4583 112.656 76.2812 112.656L73.6562 112.656C73.5729 112.656 73.5312 112.615 73.5312 112.531L73.5312 108.937C73.5312 108.854 73.5729 108.812 73.6562 108.812L76.2812 108.781C77.0312 108.781 77.6406 108.547 78.1094 108.078C78.5781 107.609 78.8125 107.052 78.8125 106.406C78.8125 105.75 78.5625 105.187 78.0625 104.719C77.5625 104.25 76.9687 104.016 76.2812 104.016C75.5833 104.016 75 104.161 74.5312 104.453C74.0625 104.755 73.6146 105.302 73.1875 106.094C73.1458 106.177 73.0417 106.37 72.875 106.672C72.7083 106.974 72.5208 107.307 72.3125 107.672C72.1146 108.047 71.9323 108.385 71.7656 108.687C71.6094 108.99 71.5156 109.172 71.4844 109.234C70.8906 110.297 70.1615 111.135 69.2969 111.75C68.4323 112.375 67.3698 112.687 66.1094 112.687C64.8906 112.687 63.7969 112.406 62.8281 111.844C61.8594 111.271 61.0937 110.51 60.5312 109.562C59.9687 108.615 59.6875 107.562 59.6875 106.406Z" fill="white" fill-opacity="0.5"/>
</svg>
